%TF.GenerationSoftware,KiCad,Pcbnew,(5.1.6)-1*%
%TF.CreationDate,2022-10-06T16:18:31-07:00*%
%TF.ProjectId,Buggly Gruesome Aux,42756767-6c79-4204-9772-7565736f6d65,rev?*%
%TF.SameCoordinates,Original*%
%TF.FileFunction,Soldermask,Bot*%
%TF.FilePolarity,Negative*%
%FSLAX46Y46*%
G04 Gerber Fmt 4.6, Leading zero omitted, Abs format (unit mm)*
G04 Created by KiCad (PCBNEW (5.1.6)-1) date 2022-10-06 16:18:31*
%MOMM*%
%LPD*%
G01*
G04 APERTURE LIST*
%ADD10C,4.100000*%
%ADD11C,1.700000*%
%ADD12R,1.700000X1.700000*%
%ADD13O,2.100000X2.005000*%
%ADD14R,2.100000X2.005000*%
%ADD15O,1.700000X1.700000*%
%ADD16R,1.600000X1.600000*%
%ADD17C,1.600000*%
%ADD18C,2.600000*%
%ADD19C,4.600000*%
%ADD20C,3.100000*%
%ADD21R,3.100000X3.100000*%
%ADD22C,2.640000*%
%ADD23C,4.164000*%
%ADD24C,2.110000*%
%ADD25C,1.900000*%
%ADD26R,1.900000X1.900000*%
G04 APERTURE END LIST*
D10*
%TO.C,J1*%
X67165080Y-115532780D03*
X67165080Y-68432780D03*
D11*
X65745080Y-76747780D03*
X65745080Y-79517780D03*
X65745080Y-82287780D03*
X65745080Y-85057780D03*
X65745080Y-87827780D03*
X65745080Y-90597780D03*
X65745080Y-93367780D03*
X65745080Y-96137780D03*
X65745080Y-98907780D03*
X65745080Y-101677780D03*
X65745080Y-104447780D03*
X65745080Y-107217780D03*
X68585080Y-75362780D03*
X68585080Y-78132780D03*
X68585080Y-80902780D03*
X68585080Y-83672780D03*
X68585080Y-86442780D03*
X68585080Y-89212780D03*
X68585080Y-91982780D03*
X68585080Y-94752780D03*
X68585080Y-97522780D03*
X68585080Y-100292780D03*
X68585080Y-103062780D03*
X68585080Y-105832780D03*
D12*
X68585080Y-108602780D03*
%TD*%
D13*
%TO.C,Q3*%
X199390000Y-115570000D03*
X199390000Y-112268000D03*
D14*
X199390000Y-108966000D03*
%TD*%
D13*
%TO.C,Q2*%
X199390000Y-81280000D03*
X199390000Y-77978000D03*
D14*
X199390000Y-74676000D03*
%TD*%
D15*
%TO.C,R12*%
X136466580Y-80932020D03*
D11*
X136466580Y-70772020D03*
%TD*%
D12*
%TO.C,U1*%
X98552000Y-57404000D03*
D15*
X88392000Y-49784000D03*
X98552000Y-54864000D03*
X88392000Y-52324000D03*
X98552000Y-52324000D03*
X88392000Y-54864000D03*
X98552000Y-49784000D03*
X88392000Y-57404000D03*
%TD*%
%TO.C,R11*%
X162128200Y-94843600D03*
D11*
X162128200Y-84683600D03*
%TD*%
D15*
%TO.C,R10*%
X153238200Y-94843600D03*
D11*
X153238200Y-84683600D03*
%TD*%
D15*
%TO.C,R9*%
X144348200Y-94843600D03*
D11*
X144348200Y-84683600D03*
%TD*%
D15*
%TO.C,R8*%
X182448200Y-94843600D03*
D11*
X182448200Y-84683600D03*
%TD*%
D15*
%TO.C,R7*%
X174193200Y-94843600D03*
D11*
X174193200Y-84683600D03*
%TD*%
D15*
%TO.C,R6*%
X116154200Y-94589600D03*
D11*
X116154200Y-84429600D03*
%TD*%
D15*
%TO.C,R5*%
X107899200Y-94589600D03*
D11*
X107899200Y-84429600D03*
%TD*%
D15*
%TO.C,R4*%
X136347200Y-94589600D03*
D11*
X136347200Y-84429600D03*
%TD*%
D15*
%TO.C,R3*%
X131902200Y-94589600D03*
D11*
X131902200Y-84429600D03*
%TD*%
D15*
%TO.C,R2*%
X127457200Y-84429600D03*
D11*
X127457200Y-94589600D03*
%TD*%
D15*
%TO.C,R1*%
X99517200Y-94589600D03*
D11*
X99517200Y-84429600D03*
%TD*%
D16*
%TO.C,Q1*%
X128727200Y-97764600D03*
D17*
X128727200Y-102964600D03*
X128727200Y-100364600D03*
%TD*%
D18*
%TO.C,K2*%
X130150000Y-57554000D03*
X144150000Y-44554000D03*
D19*
X136650000Y-42604000D03*
X136650000Y-59504000D03*
X128150000Y-51054000D03*
X136150000Y-51054000D03*
X146050000Y-51054000D03*
%TD*%
D18*
%TO.C,K1*%
X158344000Y-57554000D03*
X172344000Y-44554000D03*
D19*
X164844000Y-42604000D03*
X164844000Y-59504000D03*
X156344000Y-51054000D03*
X164344000Y-51054000D03*
X174244000Y-51054000D03*
%TD*%
D20*
%TO.C,J4*%
X194310000Y-54864000D03*
X194310000Y-48514000D03*
X194310000Y-42164000D03*
%TD*%
D21*
%TO.C,J3*%
X136518600Y-121412000D03*
D20*
X186518600Y-121412000D03*
X181518600Y-121412000D03*
X176518600Y-121412000D03*
X171518600Y-121412000D03*
X166518600Y-121412000D03*
X141518600Y-121412000D03*
X146518600Y-121412000D03*
X151518600Y-121412000D03*
X156518600Y-121412000D03*
X161518600Y-121412000D03*
%TD*%
D21*
%TO.C,J2*%
X80918000Y-121412000D03*
D20*
X130918000Y-121412000D03*
X125918000Y-121412000D03*
X120918000Y-121412000D03*
X115918000Y-121412000D03*
X110918000Y-121412000D03*
X85918000Y-121412000D03*
X90918000Y-121412000D03*
X95918000Y-121412000D03*
X100918000Y-121412000D03*
X105918000Y-121412000D03*
%TD*%
D19*
%TO.C,HS2*%
X194310000Y-99187000D03*
X194310000Y-125857000D03*
%TD*%
%TO.C,HS1*%
X194310000Y-65532000D03*
X194310000Y-92202000D03*
%TD*%
D22*
%TO.C,F9*%
X163855400Y-70713600D03*
X160401000Y-78333600D03*
D23*
X162128200Y-74523600D03*
%TD*%
D22*
%TO.C,F8*%
X154965400Y-70713600D03*
X151511000Y-78333600D03*
D23*
X153238200Y-74523600D03*
%TD*%
D22*
%TO.C,F7*%
X146075400Y-70713600D03*
X142621000Y-78333600D03*
D23*
X144348200Y-74523600D03*
%TD*%
D22*
%TO.C,F6*%
X180365400Y-70713600D03*
X176911000Y-78333600D03*
D23*
X178638200Y-74523600D03*
%TD*%
D22*
%TO.C,F5*%
X114071400Y-70459600D03*
X110617000Y-78079600D03*
D23*
X112344200Y-74269600D03*
%TD*%
D24*
%TO.C,F4*%
X131337200Y-78099600D03*
X132537200Y-72999600D03*
%TD*%
D22*
%TO.C,F3*%
X182930800Y-51562000D03*
X186385200Y-43942000D03*
D23*
X184658000Y-47752000D03*
%TD*%
D24*
%TO.C,F2*%
X100082200Y-72979600D03*
X98882200Y-78079600D03*
%TD*%
%TO.C,F1*%
X93402000Y-72370000D03*
X92202000Y-77470000D03*
%TD*%
D25*
%TO.C,D9*%
X162128200Y-98653600D03*
D26*
X162128200Y-101193600D03*
%TD*%
D25*
%TO.C,D8*%
X153238200Y-98653600D03*
D26*
X153238200Y-101193600D03*
%TD*%
D25*
%TO.C,D7*%
X144348200Y-98653600D03*
D26*
X144348200Y-101193600D03*
%TD*%
D25*
%TO.C,D6*%
X182448200Y-98653600D03*
D26*
X182448200Y-101193600D03*
%TD*%
D25*
%TO.C,D5*%
X174193200Y-98653600D03*
D26*
X174193200Y-101193600D03*
%TD*%
D25*
%TO.C,D4*%
X116154200Y-98399600D03*
D26*
X116154200Y-100939600D03*
%TD*%
D25*
%TO.C,D3*%
X107899200Y-98399600D03*
D26*
X107899200Y-100939600D03*
%TD*%
D25*
%TO.C,D2*%
X135712200Y-98399600D03*
D26*
X135712200Y-100939600D03*
%TD*%
D25*
%TO.C,D1*%
X99517200Y-98399600D03*
D26*
X99517200Y-100939600D03*
%TD*%
M02*
