M48
; DRILL file {KiCad (5.1.6)-1} date 10/06/22 16:18:34
; FORMAT={-:-/ absolute / inch / decimal}
; #@! TF.CreationDate,2022-10-06T16:18:34-07:00
; #@! TF.GenerationSoftware,Kicad,Pcbnew,(5.1.6)-1
; #@! TF.FileFunction,Plated,1,2,PTH
FMAT,2
INCH
T1C0.0157
T2C0.0315
T3C0.0354
T4C0.0394
T5C0.0398
T6C0.0433
T7C0.0500
T8C0.0512
T9C0.0827
T10C0.0906
T11C0.1260
T12C0.1490
%
G90
G05
T1
X3.3523Y-2.9079
X3.3563Y-3.1556
X3.4742Y-2.4783
X3.5881Y-2.1646
X3.7759Y-3.1077
X4.0998Y-3.6277
X4.1033Y-3.4983
X4.1068Y-3.5577
X4.1101Y-3.3949
X4.3298Y-2.059
X4.3639Y-2.2568
X4.5766Y-1.7895
X4.6855Y-3.4288
X4.7894Y-2.8342
X4.89Y-2.8475
X4.9648Y-1.793
T2
X5.683Y-3.334
X5.683Y-3.734
X3.918Y-3.324
X3.918Y-3.724
X6.033Y-3.334
X6.033Y-3.734
X5.3727Y-2.7863
X5.3727Y-3.1863
X3.48Y-1.96
X3.48Y-2.06
X3.48Y-2.16
X3.48Y-2.26
X3.88Y-1.96
X3.88Y-2.06
X3.88Y-2.16
X3.88Y-2.26
X5.018Y-3.324
X5.018Y-3.724
X5.368Y-3.324
X5.368Y-3.724
X4.248Y-3.324
X4.248Y-3.724
X4.573Y-3.324
X4.573Y-3.724
X5.193Y-3.324
X5.193Y-3.724
X6.858Y-3.334
X6.858Y-3.734
X6.383Y-3.334
X6.383Y-3.734
X7.183Y-3.334
X7.183Y-3.734
T3
X5.343Y-3.874
X5.343Y-3.974
X4.248Y-3.874
X4.248Y-3.974
X4.573Y-3.874
X4.573Y-3.974
X6.858Y-3.884
X6.858Y-3.984
X5.683Y-3.884
X5.683Y-3.984
X3.918Y-3.874
X3.918Y-3.974
X7.183Y-3.884
X7.183Y-3.984
X6.383Y-3.884
X6.383Y-3.984
X5.068Y-3.849
X5.068Y-3.9514
X5.068Y-4.0537
X6.033Y-3.884
X6.033Y-3.984
T4
X2.5884Y-3.0216
X2.5884Y-3.1306
X2.5884Y-3.2397
X2.5884Y-3.3487
X2.5884Y-3.4578
X2.5884Y-3.5668
X2.5884Y-3.6759
X2.5884Y-3.785
X2.5884Y-3.894
X2.5884Y-4.0031
X2.5884Y-4.1121
X2.5884Y-4.2212
X2.7002Y-2.967
X2.7002Y-3.0761
X2.7002Y-3.1851
X2.7002Y-3.2942
X2.7002Y-3.4033
X2.7002Y-3.5123
X2.7002Y-3.6214
X2.7002Y-3.7304
X2.7002Y-3.8395
X2.7002Y-3.9485
X2.7002Y-4.0576
X2.7002Y-4.1666
X2.7002Y-4.2757
T5
X3.893Y-3.074
X3.9402Y-2.8732
X3.63Y-3.05
X3.6772Y-2.8492
X5.1708Y-3.0748
X5.218Y-2.874
T6
X7.85Y-4.29
X7.85Y-4.42
X7.85Y-4.55
X7.85Y-2.94
X7.85Y-3.07
X7.85Y-3.2
T7
X7.202Y-2.03
X7.338Y-1.73
X4.355Y-3.074
X4.491Y-2.774
X5.615Y-3.084
X5.751Y-2.784
X5.965Y-3.084
X6.101Y-2.784
X6.315Y-3.084
X6.451Y-2.784
X6.965Y-3.084
X7.101Y-2.784
T8
X7.65Y-1.66
X7.65Y-1.91
X7.65Y-2.16
X3.1857Y-4.78
X3.3826Y-4.78
X3.5794Y-4.78
X3.7763Y-4.78
X3.9731Y-4.78
X4.17Y-4.78
X4.3669Y-4.78
X4.5637Y-4.78
X4.7606Y-4.78
X4.9574Y-4.78
X5.1543Y-4.78
X5.3747Y-4.78
X5.5716Y-4.78
X5.7684Y-4.78
X5.9653Y-4.78
X6.1621Y-4.78
X6.359Y-4.78
X6.5559Y-4.78
X6.7527Y-4.78
X6.9496Y-4.78
X7.1464Y-4.78
X7.3433Y-4.78
T9
X7.65Y-3.905
X7.65Y-4.955
X7.65Y-2.58
X7.65Y-3.63
X5.124Y-2.2659
X5.6752Y-1.7541
X6.234Y-2.2659
X6.7852Y-1.7541
T10
X5.0453Y-2.01
X5.3602Y-2.01
X5.3799Y-1.6773
X5.3799Y-2.3427
X5.75Y-2.01
X6.1553Y-2.01
X6.4702Y-2.01
X6.4899Y-1.6773
X6.4899Y-2.3427
X6.86Y-2.01
T11
X2.6443Y-2.6942
X2.6443Y-4.5485
T12
X7.27Y-1.88
X4.423Y-2.924
X5.683Y-2.934
X6.033Y-2.934
X6.383Y-2.934
X7.033Y-2.934
T0
M30
